<svg version="1.1" id="Layer_1" xmlns="http://www.w3.org/2000/svg" xmlns:xlink="http://www.w3.org/1999/xlink" x="0px" y="0px"
	 width="100%" viewBox="0 0 3367 2236" enable-background="new 0 0 3367 2236" xml:space="preserve">

<path fill="#D7812C" opacity="1.000000" stroke="none" 
	d="
M1715.779419,1845.954956 
	C1717.649536,1804.144043 1728.840332,1764.087280 1738.936401,1723.846069 
	C1752.523071,1669.692383 1766.130371,1615.541382 1780.209839,1561.514526 
	C1798.224487,1492.386841 1816.719727,1423.384521 1835.004639,1354.327271 
	C1848.783081,1302.290527 1862.427002,1250.217651 1876.366577,1198.224121 
	C1891.679199,1141.108887 1907.279785,1084.071045 1922.722778,1026.990723 
	C1940.767212,960.294434 1958.722290,893.573914 1976.818481,826.891663 
	C1992.743896,768.208069 2008.806641,709.561768 2024.831543,650.905212 
	C2025.353638,648.994263 2026.122681,647.150757 2027.117432,644.298401 
	C2030.188599,644.298401 2033.456543,644.298340 2036.724487,644.298340 
	C2400.385254,644.297729 2764.046387,644.122253 3127.706787,644.517700 
	C3173.214355,644.567139 3217.801025,652.427551 3259.283936,672.392883 
	C3285.695068,685.104309 3308.305420,703.068115 3326.073242,726.627991 
	C3351.841064,760.795776 3364.889404,799.657593 3368.092773,843.752319 
	C3368.721436,848.957214 3369.360596,852.478638 3370.000000,856.000000 
	C3370.000000,872.708435 3370.000000,889.416931 3369.378174,907.573242 
	C3368.628174,913.411499 3368.500000,917.801880 3368.237793,923.083496 
	C3365.874023,941.732910 3365.146973,959.842407 3361.094238,977.174255 
	C3353.310303,1010.462219 3343.644775,1043.310303 3334.753174,1076.339111 
	C3319.814697,1131.828979 3304.866455,1187.316162 3289.931396,1242.807129 
	C3277.416992,1289.303467 3264.924561,1335.805786 3252.406006,1382.301025 
	C3242.390137,1419.502563 3231.922607,1456.588867 3222.432373,1493.923828 
	C3211.445068,1537.148560 3197.004395,1579.128296 3177.099854,1618.981323 
	C3154.490479,1664.249634 3125.680664,1705.154175 3086.998047,1738.459106 
	C3053.286865,1767.483887 3015.250977,1788.612061 2972.792725,1802.033691 
	C2929.219238,1815.807739 2884.450195,1820.303101 2839.062988,1820.312500 
	C2600.125244,1820.361816 2361.187744,1820.335571 2122.250000,1820.335571 
	C2118.313965,1820.335571 2114.377930,1820.335571 2110.960205,1820.335571 
	C2109.771484,1821.870117 2109.040527,1822.586182 2108.576172,1823.446289 
	C2093.155518,1852.006470 2082.229492,1882.343628 2074.538086,1913.741943 
	C2069.890625,1932.714844 2065.466064,1951.905640 2065.393555,1972.001099 
	C2064.514404,1972.823730 2064.424316,1973.419434 2064.570068,1974.993164 
	C2064.831787,1991.511475 2064.691895,2007.154785 2065.814453,2022.706909 
	C2068.488525,2059.755615 2080.197510,2094.027344 2099.380859,2125.745605 
	C2122.768311,2164.415283 2155.326416,2193.808105 2193.167236,2217.768555 
	C2200.017578,2222.106445 2207.020996,2226.202881 2213.953613,2230.410645 
	C2213.771240,2230.963623 2213.588867,2231.516357 2213.406494,2232.069092 
	C2203.625732,2233.434814 2193.845215,2234.800293 2183.251953,2236.088867 
	C2178.959717,2236.674805 2175.479736,2237.337402 2172.000000,2238.000000 
	C2148.624756,2238.000000 2125.249756,2238.000000 2100.376953,2237.407959 
	C2093.752930,2236.650879 2088.626953,2236.485840 2083.500732,2236.320801 
	C2056.761230,2235.478516 2030.828125,2229.686035 2005.054810,2223.188477 
	C1977.246460,2216.177734 1950.434204,2206.088379 1924.870850,2193.260010 
	C1881.361328,2171.425781 1842.709839,2142.715088 1810.039307,2106.503174 
	C1763.001099,2054.365967 1733.219482,1993.479248 1720.642456,1924.429688 
	C1716.169678,1899.874023 1715.031860,1874.907715 1715.717529,1848.479126 
	C1715.798462,1846.679688 1715.788940,1846.317383 1715.779419,1845.954956 
M2329.000000,1466.292358 
	C2498.666016,1466.292969 2668.332031,1466.293579 2837.998047,1466.292725 
	C2840.664551,1466.292725 2843.348145,1466.462280 2845.994385,1466.225708 
	C2855.216309,1465.401855 2863.118652,1462.051880 2870.031494,1455.476318 
	C2879.016113,1446.930054 2882.208740,1435.820557 2885.229980,1424.629883 
	C2902.805420,1359.529053 2920.207764,1294.381226 2937.636719,1229.240845 
	C2946.909668,1194.583252 2956.111328,1159.906494 2965.358154,1125.241821 
	C2975.206299,1088.322998 2985.131348,1051.424316 2994.844971,1014.470093 
	C2995.990723,1010.111511 2996.014160,1005.458069 2996.550537,1001.000183 
	C2989.360840,997.338074 2982.677246,997.719543 2976.099365,997.718872 
	C2753.433594,997.696960 2530.767578,997.700623 2308.101807,997.700562 
	C2304.826904,997.700562 2301.552246,997.700562 2297.508301,997.700562 
	C2255.496094,1153.950928 2213.648682,1309.587646 2171.513916,1466.292603 
	C2224.416992,1466.292603 2275.708496,1466.292603 2329.000000,1466.292358 
z"/>
<path fill="#D7812C" opacity="1.000000" stroke="none" 
	d="
M100.038124,649.495850 
	C107.028152,649.561218 114.018166,649.682739 121.008202,649.683533 
	C227.889069,649.695679 334.769958,649.691956 441.650818,649.691956 
	C445.580231,649.691956 449.509644,649.692017 454.396606,649.692017 
	C450.139679,666.255005 446.279358,681.666565 442.211700,697.023132 
	C432.610992,733.268860 422.865082,769.476135 413.264313,805.721802 
	C402.047485,848.068420 390.738678,890.391968 379.827362,932.817505 
	C373.374512,957.907654 368.856995,983.368896 367.666107,1009.331909 
	C367.347717,1016.273926 366.815674,1023.206116 366.335052,1031.558105 
	C366.324188,1033.336060 366.360016,1033.698730 366.395813,1034.061523 
	C366.195618,1040.762329 365.995453,1047.463257 365.983276,1055.604980 
	C366.298950,1057.387939 366.426575,1057.729736 366.554169,1058.071655 
	C365.877930,1080.769775 369.185944,1103.110229 373.042786,1125.347412 
	C383.657074,1186.545288 405.677887,1243.636841 435.276215,1298.060425 
	C464.496643,1351.789307 499.855164,1401.143066 539.851868,1447.283203 
	C544.169373,1452.263916 548.464661,1457.263672 553.163025,1462.709961 
	C565.605713,1453.908081 577.824463,1445.871094 589.383362,1436.976685 
	C627.316467,1407.786621 665.412781,1378.784058 702.646057,1348.718384 
	C725.363037,1330.374634 746.857666,1310.481567 768.438721,1290.777588 
	C785.626587,1275.084717 802.562988,1259.063477 818.828186,1242.422852 
	C867.038330,1193.099243 911.194336,1140.414673 948.824646,1082.470093 
	C980.117249,1034.284424 1005.866272,983.328125 1023.242432,928.489807 
	C1031.565063,902.224060 1038.150757,875.399719 1045.238647,848.752686 
	C1060.608154,790.969849 1075.795044,733.138367 1091.055298,675.326477 
	C1093.162842,667.342041 1095.262695,659.355591 1097.485352,650.916748 
	C1215.763062,650.916748 1333.576416,650.916748 1452.565063,650.916748 
	C1451.146729,656.819092 1449.958374,662.228027 1448.544434,667.577332 
	C1434.294067,721.492432 1419.807007,775.345886 1405.776123,829.317932 
	C1383.660156,914.390320 1356.430664,997.689087 1320.168457,1077.864990 
	C1291.896973,1140.373779 1259.516846,1200.666138 1222.575195,1258.525879 
	C1182.219727,1321.732788 1137.398560,1381.591309 1087.503174,1437.504028 
	C1060.280029,1468.010132 1032.126587,1497.802246 1002.859314,1526.343994 
	C942.324036,1585.378784 877.206421,1639.071899 808.822754,1688.854004 
	C741.754333,1737.678711 671.776428,1781.894043 599.618835,1822.717896 
	C596.086853,1824.716187 591.446411,1825.572266 587.319214,1825.580811 
	C507.997131,1825.744873 428.674591,1825.667114 349.352356,1825.782349 
	C344.107513,1825.790039 339.817841,1824.757324 335.782562,1821.141968 
	C311.786926,1799.644531 287.269623,1778.717773 263.596680,1756.874268 
	C221.930115,1718.427612 185.573669,1675.251221 152.563660,1629.237305 
	C112.412193,1573.268921 80.145958,1513.081543 55.664074,1448.653320 
	C38.369102,1403.138916 25.530279,1356.410645 16.811722,1308.596680 
	C12.770906,1286.436279 10.647229,1263.924805 7.719983,1241.563843 
	C7.032379,1236.311401 6.610206,1231.024292 5.893383,1224.363770 
	C5.611833,1222.625732 5.502821,1222.277100 5.393809,1221.928467 
	C5.390584,1218.236084 5.387359,1214.543579 4.937397,1209.340088 
	C3.304312,1201.935791 6.626675,1195.412598 2.000000,1190.000000 
	C2.000000,1165.291504 2.000000,1140.583130 2.654989,1114.431763 
	C3.713102,1107.359619 4.116225,1101.730225 4.863303,1095.755859 
	C5.615850,1094.847534 5.759065,1094.223511 5.640056,1093.082886 
	C5.643210,1092.627441 5.285552,1091.789673 5.285551,1091.789673 
	C5.401459,1088.443237 5.517368,1085.096802 5.730269,1080.397583 
	C5.817483,1078.677002 5.807705,1078.309082 5.797926,1077.941162 
	C10.906049,1018.776978 19.378960,960.116699 33.497879,902.402832 
	C44.135578,858.919250 55.518951,815.616333 66.782928,772.288208 
	C76.794685,733.776855 87.103409,695.342590 97.257072,656.868042 
	C97.679535,655.267212 97.858604,653.602112 98.686859,651.017883 
	C99.222641,650.068787 100.038124,649.495850 100.038124,649.495850 
z"/>

<path fill="#D7812C" opacity="1.000000" stroke="none" 
	d="
M1940.438354,191.684830 
	C1940.438354,191.684830 1941.000244,191.675659 1941.891846,191.772247 
	C1943.867065,191.397324 1944.950928,190.925797 1946.034668,190.454285 
	C1960.731934,190.369308 1975.429077,190.284332 1991.583740,190.002838 
	C1993.381348,189.680603 1993.721313,189.554886 1994.061157,189.429199 
	C2012.884155,188.242493 2031.749146,187.511169 2050.522705,185.785629 
	C2112.614014,180.078568 2173.092773,167.357834 2230.454102,142.187958 
	C2273.706543,123.209053 2312.759521,97.962463 2346.305176,64.302475 
	C2364.935547,45.608734 2381.450928,25.388302 2395.951172,2.694673 
	C2396.000000,2.000000 2397.000000,2.000000 2397.500000,1.999995 
	C2397.915283,2.888211 2397.830566,3.776432 2397.929199,5.857853 
	C2398.246582,7.389364 2398.380859,7.727674 2398.515137,8.065983 
	C2398.939697,18.710682 2399.364014,29.355383 2399.412842,41.160385 
	C2398.521484,42.838932 2398.423096,43.426987 2398.742432,44.084846 
	C2397.932617,57.997646 2397.461182,71.939919 2396.252930,85.818054 
	C2391.433838,141.168060 2377.917725,194.395844 2356.400391,245.584579 
	C2338.754395,287.562775 2315.303467,326.074005 2285.977051,360.892792 
	C2240.880371,414.435486 2185.868896,454.617676 2121.710693,482.605316 
	C2065.000977,507.343719 2005.870605,523.093628 1944.844727,532.418640 
	C1912.020630,537.434265 1879.113647,541.337708 1844.596313,542.390259 
	C1843.287842,542.380615 1842.416260,542.394592 1841.940552,542.402466 
	C1840.814941,542.574036 1840.312622,542.940308 1839.958130,543.509094 
	C1832.588013,543.647827 1825.217896,543.786621 1816.411133,544.106140 
	C1814.626343,544.396057 1814.277954,544.505310 1813.929688,544.614502 
	C1790.621826,544.310486 1767.258911,544.897644 1744.020874,543.462646 
	C1718.594360,541.892578 1692.915161,542.563232 1667.864014,536.343811 
	C1633.987915,527.933594 1611.620972,502.017548 1608.213379,467.307770 
	C1606.528931,450.149414 1608.547974,433.314056 1612.842651,416.930145 
	C1624.209351,373.566345 1635.543701,330.162262 1648.452759,287.243988 
	C1659.919800,249.119873 1682.413452,218.897079 1719.226929,201.214981 
	C1739.016235,191.709808 1760.239014,188.031433 1782.082764,187.698593 
	C1789.412354,187.586914 1796.744507,187.654587 1805.512207,187.764984 
	C1807.312134,187.871414 1807.675659,187.853134 1808.039185,187.834869 
	C1819.398193,188.003143 1830.757080,188.171417 1843.364868,188.804916 
	C1844.613647,189.270157 1845.503052,189.684586 1845.503052,189.684586 
	C1845.503052,189.684586 1846.484131,189.664871 1846.484131,189.664871 
	C1855.687012,189.650452 1864.890015,189.636047 1875.533447,189.667786 
	C1877.337280,189.678406 1877.700562,189.642853 1878.063965,189.607285 
	C1896.082886,189.843094 1914.101685,190.078903 1933.575806,190.829926 
	C1936.833496,191.458359 1938.635864,191.571594 1940.438354,191.684830 
z"/>
<path fill="#EFD1B2" opacity="1.000000" stroke="none" 
	d="
M2.000000,1190.908203 
	C6.626675,1195.412598 3.304312,1201.935791 4.497881,1208.689209 
	C4.090821,1209.642456 3.676541,1209.735474 2.631131,1209.914307 
	C2.000000,1203.938843 2.000000,1197.877563 2.000000,1190.908203 
z"/>
<path fill="#EFD1B2" opacity="1.000000" stroke="none" 
	d="
M4.519348,1096.100952 
	C4.116225,1101.730225 3.713102,1107.359619 2.654989,1113.494385 
	C2.000000,1107.938843 2.000000,1101.877563 2.506813,1094.931396 
	C3.351628,1094.058594 3.689629,1094.070923 4.072742,1094.606689 
	C4.251685,1095.453613 4.385517,1095.777222 4.519348,1096.100952 
z"/>
<path fill="#DD9D5E" opacity="1.000000" stroke="none" 
	d="
M2083.589355,2236.751221 
	C2088.626953,2236.485840 2093.752930,2236.650879 2099.439453,2237.407959 
	C2095.258789,2238.000000 2090.517822,2238.000000 2084.888184,2238.000000 
	C2084.000000,2238.000000 2083.678223,2237.181641 2083.589355,2236.751221 
z"/>
<path fill="#EFD1B2" opacity="1.000000" stroke="none" 
	d="
M3370.000000,921.125000 
	C3370.000000,922.000000 3369.201660,922.231567 3368.786865,922.211914 
	C3368.500000,917.801880 3368.628174,913.411499 3369.378174,908.510620 
	C3370.000000,912.083313 3370.000000,916.166687 3370.000000,921.125000 
z"/>
<path fill="#F3DDC7" opacity="1.000000" stroke="none" 
	d="
M2183.251953,2236.088867 
	C2184.064453,2236.166016 2184.004639,2237.082031 2184.002441,2237.541016 
	C2180.571289,2238.000000 2177.142578,2238.000000 2172.856934,2238.000000 
	C2175.479736,2237.337402 2178.959717,2236.674805 2183.251953,2236.088867 
z"/>
<path fill="#EFD1B2" opacity="1.000000" stroke="none" 
	d="
M3370.000000,855.143066 
	C3369.360596,852.478638 3368.721436,848.957214 3368.223145,844.624268 
	C3368.364014,843.812744 3369.197021,843.775635 3369.598633,843.887817 
	C3370.000000,847.428711 3370.000000,850.857422 3370.000000,855.143066 
z"/>
<path fill="#EFDFC7" opacity="1.000000" stroke="none" 
	d="
M4.027631,1094.083374 
	C3.689629,1094.070923 3.351628,1094.058594 2.506813,1094.023193 
	C2.000000,1094.000000 2.000000,1093.000000 1.999999,1092.500000 
	C2.730202,1091.955322 3.460406,1091.910767 4.738081,1091.827881 
	C5.285552,1091.789673 5.643210,1092.627441 5.233427,1093.205444 
	C4.823644,1093.783447 4.027631,1094.083374 4.027631,1094.083374 
z"/>
<path fill="#D7812C" opacity="1.000000" stroke="none" 
	d="
M1680.093018,1518.015381 
	C1669.247070,1558.604736 1658.591064,1598.394287 1647.915161,1638.178345 
	C1637.844116,1675.708984 1627.748657,1713.233154 1617.670288,1750.761841 
	C1612.329712,1770.648682 1607.026978,1790.545776 1601.651855,1810.423218 
	C1600.354248,1815.222290 1598.837036,1819.962036 1597.290527,1825.166992 
	C1479.600098,1825.166992 1362.104736,1825.166992 1243.255005,1825.166992 
	C1348.010864,1433.369019 1452.559326,1042.346436 1557.224243,650.889038 
	C1675.528687,650.889038 1793.367676,650.889038 1912.820923,650.889038 
	C1835.193848,940.079102 1757.734009,1228.646118 1680.093018,1518.015381 
z"/>
<path fill="#DFA05F" opacity="1.000000" stroke="none" 
	d="
M1939.960449,191.164124 
	C1938.635864,191.571594 1936.833496,191.458359 1934.508911,190.906250 
	C1935.818726,190.526031 1937.650635,190.584717 1939.960449,191.164124 
z"/>
<path fill="#DFA05F" opacity="1.000000" stroke="none" 
	d="
M1945.423828,190.276031 
	C1944.950928,190.925797 1943.867065,191.397324 1942.172729,191.775940 
	C1942.645752,191.154602 1943.729248,190.626205 1945.423828,190.276031 
z"/>
<path fill="#EFDFC7" opacity="1.000000" stroke="none" 
	d="
M5.467632,1078.110596 
	C5.807705,1078.309082 5.817483,1078.677002 5.636577,1079.562988 
	C5.202956,1079.682861 4.911736,1079.303345 4.746439,1078.875122 
	C4.696705,1078.746216 4.997251,1078.482300 5.467632,1078.110596 
z"/>
<path fill="#F3DFCA" opacity="1.000000" stroke="none" 
	d="
M1993.826904,189.149536 
	C1993.721313,189.554886 1993.381348,189.680603 1992.497803,189.792175 
	C1992.500488,189.475311 1993.046631,189.172607 1993.826904,189.149536 
z"/>
<path fill="#F3DFCA" opacity="1.000000" stroke="none" 
	d="
M1715.452026,1846.120117 
	C1715.788940,1846.317383 1715.798462,1846.679688 1715.617676,1847.551392 
	C1715.187500,1847.667969 1714.899780,1847.293823 1714.736450,1846.871460 
	C1714.687500,1846.745117 1714.985596,1846.484375 1715.452026,1846.120117 
z"/>
<path fill="#F3DFCA" opacity="1.000000" stroke="none" 
	d="
M5.110421,1222.153809 
	C5.502821,1222.277100 5.611833,1222.625732 5.665823,1223.519409 
	C5.349544,1223.502686 5.088288,1222.941040 5.110421,1222.153809 
z"/>
<path fill="#DD9D5E" opacity="1.000000" stroke="none" 
	d="
M1840.431885,543.710327 
	C1840.312622,542.940308 1840.814941,542.574036 1841.821289,542.786743 
	C1842.177856,543.163208 1841.934692,543.932739 1841.934692,543.932739 
	C1841.591553,543.925659 1841.248535,543.918579 1840.431885,543.710327 
z"/>
<path fill="#F3DDC7" opacity="1.000000" stroke="none" 
	d="
M1842.370605,543.898804 
	C1841.934692,543.932739 1842.177856,543.163208 1842.297119,542.778931 
	C1842.416260,542.394592 1843.287842,542.380615 1843.685303,542.560120 
	C1843.831909,543.312805 1843.406494,543.687866 1842.370605,543.898804 
z"/>
<path fill="#F5DFCA" opacity="1.000000" stroke="none" 
	d="
M99.760597,649.219421 
	C100.038124,649.495850 99.222641,650.068787 98.750687,650.227539 
	C98.680183,649.905212 99.081627,649.424133 99.760597,649.219421 
z"/>
<path fill="#F3DDC7" opacity="1.000000" stroke="none" 
	d="
M366.834717,1057.835449 
	C366.426575,1057.729736 366.298950,1057.387939 366.186493,1056.498901 
	C366.506195,1056.500977 366.810730,1057.050171 366.834717,1057.835449 
z"/>
<path fill="#F3DFCA" opacity="1.000000" stroke="none" 
	d="
M366.708740,1033.879883 
	C366.360016,1033.698730 366.324188,1033.336060 366.451782,1032.452026 
	C366.869690,1032.311035 367.171814,1032.671021 367.351196,1033.084106 
	C367.408539,1033.216309 367.140717,1033.489624 366.708740,1033.879883 
z"/>
<path fill="#F3DFCA" opacity="1.000000" stroke="none" 
	d="
M2398.792480,7.829784 
	C2398.380859,7.727674 2398.246582,7.389364 2398.138672,6.505686 
	C2398.466553,6.504740 2398.768066,7.049162 2398.792480,7.829784 
z"/>
<path fill="#F3DDC7" opacity="1.000000" stroke="none" 
	d="
M2399.099609,43.798046 
	C2398.423096,43.426987 2398.521484,42.838932 2399.421387,42.041313 
	C2399.966064,42.400208 2399.850098,42.983307 2399.099609,43.798046 
z"/>
<path fill="#F3DFCA" opacity="1.000000" stroke="none" 
	d="
M1814.155518,544.897217 
	C1814.277954,544.505310 1814.626343,544.396057 1815.519531,544.339661 
	C1815.503296,544.654907 1814.942261,544.917419 1814.155518,544.897217 
z"/>
<path fill="#F3DFCA" opacity="1.000000" stroke="none" 
	d="
M1877.881714,189.294128 
	C1877.700562,189.642853 1877.337280,189.678406 1876.451050,189.550964 
	C1876.518677,189.252304 1877.109009,189.116638 1877.881714,189.294128 
z"/>
<path fill="#F3DFCA" opacity="1.000000" stroke="none" 
	d="
M1807.874268,187.508453 
	C1807.675659,187.853134 1807.312134,187.871414 1806.441528,187.687775 
	C1806.526001,187.384598 1807.117798,187.283325 1807.874268,187.508453 
z"/>
<path fill="#DFA05F" opacity="1.000000" stroke="none" 
	d="
M1846.200928,189.224396 
	C1846.484131,189.664871 1845.503052,189.684586 1845.503052,189.684586 
	C1845.503052,189.684586 1844.613647,189.270157 1844.293945,188.899490 
	C1844.622070,188.613861 1845.270020,188.698883 1846.200928,189.224396 
z"/>
<path fill="#F3DDC7" opacity="1.000000" stroke="none" 
	d="
M2065.393555,1972.001099 
	C2065.955078,1972.355591 2065.849854,1972.947876 2065.100586,1973.782959 
	C2064.424316,1973.419434 2064.514404,1972.823730 2065.393555,1972.001099 
z"/>
<path fill="#DD9D5E" opacity="1.000000" stroke="none" 
	d="
M4.072742,1094.606689 
	C4.027631,1094.083374 4.823644,1093.783447 5.230272,1093.660889 
	C5.759065,1094.223511 5.615850,1094.847534 4.863303,1095.755859 
	C4.385517,1095.777222 4.251685,1095.453613 4.072742,1094.606689 
z"/>
</svg>